<?xml version="1.0" encoding="utf-8"?>
<svg xmlns="http://www.w3.org/2000/svg" viewBox="123.909 132.641 160.321 163.856" width="160.321px" height="163.856px">
  <path d="M 196.053 140.657 C 218.186 140.657 237.36 155.663 242.683 177.154 L 244.142 183.046 L 250.21 183.238 C 264.791 183.703 276.214 195.455 276.214 209.996 C 276.214 224.801 264.174 236.85 249.36 236.85 L 149.961 236.85 C 140.021 236.85 131.925 228.761 131.925 218.813 C 131.925 211.431 136.374 204.874 143.26 202.108 L 148.863 199.856 L 148.238 193.844 C 148.053 192.032 147.957 190.373 147.957 188.753 C 147.957 162.236 169.536 140.657 196.053 140.657 M 196.053 132.641 C 165.063 132.641 139.941 157.755 139.941 188.753 C 139.941 190.757 140.061 192.729 140.262 194.669 C 130.691 198.517 123.909 207.856 123.909 218.813 C 123.909 233.194 135.572 244.866 149.961 244.866 L 249.36 244.866 C 268.622 244.866 284.23 229.25 284.23 209.996 C 284.23 191.11 269.2 175.824 250.458 175.23 C 244.406 150.781 222.378 132.641 196.053 132.641 Z M 220.093 268.729 C 219.364 267.447 218.009 266.725 216.631 266.725 C 215.949 266.725 215.26 266.902 214.627 267.262 L 208.077 271.038 L 208.077 263.479 C 208.077 261.266 206.29 259.471 204.069 259.471 C 201.857 259.471 200.061 261.266 200.061 263.479 L 200.061 271.038 L 193.52 267.262 C 192.887 266.902 192.198 266.725 191.516 266.725 C 190.138 266.725 188.783 267.447 188.045 268.729 C 186.939 270.645 187.596 273.098 189.512 274.204 L 196.053 277.988 L 189.512 281.763 C 187.596 282.869 186.939 285.322 188.045 287.238 C 189.152 289.162 191.613 289.803 193.52 288.705 L 200.061 284.93 L 200.061 292.489 C 200.061 294.701 201.857 296.497 204.069 296.497 C 206.29 296.497 208.077 294.701 208.077 292.489 L 208.077 284.93 L 214.627 288.705 C 216.534 289.811 218.995 289.17 220.093 287.238 C 221.208 285.322 220.55 282.869 218.635 281.763 L 212.085 277.988 L 218.635 274.204 C 220.55 273.098 221.208 270.645 220.093 268.729 Z" style="paint-order: stroke; fill: rgb(128, 140, 248); fill-rule: nonzero;" transform="matrix(1, 0, 0, 1, 3.552713678800501e-15, 0)"/>
</svg>