<?xml version="1.0" encoding="utf-8"?>
<svg
  xmlns="http://www.w3.org/2000/svg"
  viewBox="266.843 262.189 130 130"
  width="130px"
  height="130px"
>
  <defs>
    <style type="text/css">
      /* Changed from #788B95 to rgb(129, 140, 248) */
      .st0 {
        fill: rgb(129, 140, 248);
      }
    </style>
  </defs>
  <path
    class="st0"
    d="M 276.143 368.889 L 276.143 387.989 C 276.143 390.289 278.043 392.189 280.343 392.189 L 392.643 392.189 C 394.943 392.189 396.843 390.289 396.843 387.989 L 396.843 275.689 C 396.843 273.389 394.943 271.489 392.643 271.489 L 373.543 271.489 C 371.243 271.489 369.343 273.389 369.343 275.689 L 369.343 294.789 L 350.243 294.789 C 347.943 294.789 346.043 296.689 346.043 298.989 L 346.043 318.089 L 326.943 318.089 C 324.643 318.089 322.743 319.989 322.743 322.289 L 322.743 341.389 L 303.643 341.389 C 301.343 341.389 299.443 343.289 299.443 345.589 L 299.443 364.689 L 280.343 364.689 C 278.043 364.689 276.143 366.589 276.143 368.889 Z M 267.743 348.489 C 266.543 347.289 266.543 345.189 267.743 343.989 L 348.643 263.089 C 349.843 261.889 351.943 261.889 353.143 263.089 C 354.343 264.289 354.343 266.389 353.143 267.589 L 272.243 348.489 C 271.043 349.689 269.043 349.689 267.743 348.489 Z"
    transform="matrix(0.9999999999999999, 0, 0, 0.9999999999999999, -3.552713678800501e-15, -7.105427357601002e-15)"
  />
</svg>