<?xml version="1.0" standalone="no"?>
<!DOCTYPE svg PUBLIC "-//W3C//DTD SVG 20010904//EN"
 "http://www.w3.org/TR/2001/REC-SVG-20010904/DTD/svg10.dtd">
<svg
  version="1.0"
  xmlns="http://www.w3.org/2000/svg"
  width="512.000000pt"
  height="512.000000pt"
  viewBox="0 0 512.000000 512.000000"
  preserveAspectRatio="xMidYMid meet"
>
  <g
    transform="translate(0.000000,512.000000) scale(0.100000,-0.100000)"
    fill="rgb(129,140,248)"
    stroke="none"
  >
    <path
      d="M2040 4993 c-456 -53 -831 -308 -1049 -714 -50 -92 -105 -254 -128
-379 -16 -85 -18 -161 -18 -735 0 -696 3 -745 61 -1005 181 -811 756 -1486
1529 -1797 227 -91 489 -152 750 -173 85 -7 300 -10 547 -8 394 3 407 4 435
24 15 11 33 36 40 55 16 46 18 3358 2 3528 -42 451 -309 851 -708 1059 -108
57 -213 95 -346 125 -83 19 -127 20 -585 22 -272 2 -511 1 -530 -2z m1101
-265 c53 -14 132 -43 175 -63 l79 -37 -90 -29 c-197 -65 -366 -171 -510 -320
-93 -97 -183 -227 -230 -331 -17 -37 -32 -68 -35 -68 -3 0 -18 29 -34 65 -42
96 -139 238 -225 328 -145 151 -341 275 -523 329 -43 13 -78 26 -78 29 0 10
143 67 223 89 129 35 182 38 672 36 l480 -2 96 -26z m-1589 -324 c407 -83 701
-372 809 -793 25 -97 49 -282 49 -374 0 -87 22 -130 77 -154 46 -19 97 -6 133
32 22 23 25 38 32 163 4 75 15 175 23 222 94 514 411 838 895 916 l95 16 44
-48 c190 -209 284 -506 268 -841 -11 -203 -54 -362 -148 -542 -70 -134 -148
-238 -279 -374 -228 -236 -504 -408 -780 -485 -84 -24 -112 -27 -245 -26 -134
0 -160 3 -240 28 -275 84 -516 228 -729 435 -171 167 -268 298 -357 484 -206
432 -139 1006 155 1325 44 48 43 48 198 16z m-404 -1716 c196 -270 485 -515
775 -657 433 -211 761 -213 1193 -6 l131 62 6 -291 c4 -173 13 -337 22 -406
51 -376 182 -687 375 -894 33 -35 60 -67 60 -71 0 -14 -559 2 -670 20 -677
107 -1259 492 -1615 1065 -166 268 -285 607 -324 925 -13 100 -26 335 -19 335
3 0 33 -37 66 -82z m2832 -1043 c0 -713 -4 -1125 -10 -1125 -5 0 -49 39 -97
88 -202 201 -312 447 -363 817 -6 44 -14 247 -17 450 l-5 370 105 93 c116 100
226 221 319 350 33 45 62 82 64 82 2 0 4 -506 4 -1125z"
    />
    <path
      d="M1643 4029 c-54 -10 -91 -30 -130 -71 -43 -45 -63 -96 -63 -163 0
-67 16 -108 61 -160 98 -111 286 -101 370 21 122 178 -26 409 -238 373z"
    />
    <path
      d="M3331 4028 c-98 -17 -172 -90 -192 -191 -29 -141 84 -279 229 -279
138 -1 241 99 242 235 0 68 -16 110 -60 161 -55 63 -134 89 -219 74z"
    />
  </g>
</svg>